<mxfile host="app.diagrams.net" modified="2023-11-28T14:12:23.569Z" agent="Mozilla/5.0 (X11; Linux x86_64) AppleWebKit/537.36 (KHTML, like Gecko) Chrome/118.0.0.0 Safari/537.36" etag="KiBuHT_y19k6vj3uSHxZ" version="22.1.4" type="github">
  <diagram id="R2lEEEUBdFMjLlhIrx00" name="Page-1">
    <mxGraphModel dx="880" dy="1303" grid="1" gridSize="10" guides="1" tooltips="1" connect="1" arrows="1" fold="1" page="1" pageScale="1" pageWidth="1100" pageHeight="850" math="0" shadow="0" extFonts="Permanent Marker^https://fonts.googleapis.com/css?family=Permanent+Marker">
      <root>
        <mxCell id="0" />
        <mxCell id="1" parent="0" />
        <mxCell id="jCPew9xWDgTRCIevKKTK-1" value="&lt;ul style=&quot;margin-top: 0px; margin-bottom: 0px; padding-inline-start: 48px; font-size: 14px;&quot;&gt;&lt;li aria-level=&quot;1&quot; style=&quot;list-style-type: disc; font-family: Roboto, sans-serif; background-color: transparent; font-variant-numeric: normal; font-variant-east-asian: normal; font-variant-alternates: normal; font-variant-position: normal; vertical-align: baseline;&quot; dir=&quot;ltr&quot;&gt;&lt;p role=&quot;presentation&quot; style=&quot;line-height:1.38;margin-top:0pt;margin-bottom:0pt;&quot; dir=&quot;ltr&quot;&gt;&lt;/p&gt;&lt;/li&gt;&lt;li aria-level=&quot;1&quot; style=&quot;list-style-type: disc; font-family: Roboto, sans-serif; background-color: transparent; font-variant-numeric: normal; font-variant-east-asian: normal; font-variant-alternates: normal; font-variant-position: normal; vertical-align: baseline;&quot; dir=&quot;ltr&quot;&gt;&lt;p role=&quot;presentation&quot; style=&quot;line-height:1.38;margin-top:0pt;margin-bottom:0pt;&quot; dir=&quot;ltr&quot;&gt;&lt;span style=&quot;background-color: transparent; font-variant-numeric: normal; font-variant-east-asian: normal; font-variant-alternates: normal; font-variant-position: normal; vertical-align: baseline;&quot;&gt;&lt;font style=&quot;font-size: 14px;&quot;&gt;Un utilisateur peut publier un texte&lt;/font&gt;&lt;/span&gt;&lt;/p&gt;&lt;/li&gt;&lt;li aria-level=&quot;1&quot; style=&quot;list-style-type: disc; font-family: Roboto, sans-serif; background-color: transparent; font-variant-numeric: normal; font-variant-east-asian: normal; font-variant-alternates: normal; font-variant-position: normal; vertical-align: baseline;&quot; dir=&quot;ltr&quot;&gt;&lt;p role=&quot;presentation&quot; style=&quot;line-height:1.38;margin-top:0pt;margin-bottom:0pt;&quot; dir=&quot;ltr&quot;&gt;&lt;span style=&quot;background-color: transparent; font-variant-numeric: normal; font-variant-east-asian: normal; font-variant-alternates: normal; font-variant-position: normal; vertical-align: baseline;&quot;&gt;&lt;font style=&quot;font-size: 14px;&quot;&gt;Un utilisateur peut référencer son texte à l’aide d’un ou plusieurs mots-clés&lt;/font&gt;&lt;/span&gt;&lt;/p&gt;&lt;/li&gt;&lt;li aria-level=&quot;1&quot; style=&quot;list-style-type: disc; font-family: Roboto, sans-serif; background-color: transparent; font-variant-numeric: normal; font-variant-east-asian: normal; font-variant-alternates: normal; font-variant-position: normal; vertical-align: baseline;&quot; dir=&quot;ltr&quot;&gt;&lt;p role=&quot;presentation&quot; style=&quot;line-height:1.38;margin-top:0pt;margin-bottom:0pt;&quot; dir=&quot;ltr&quot;&gt;&lt;span style=&quot;background-color: transparent; font-variant-numeric: normal; font-variant-east-asian: normal; font-variant-alternates: normal; font-variant-position: normal; vertical-align: baseline;&quot;&gt;&lt;font style=&quot;font-size: 14px;&quot;&gt;Un post peut être reposté&lt;/font&gt;&lt;/span&gt;&lt;/p&gt;&lt;/li&gt;&lt;li aria-level=&quot;1&quot; style=&quot;list-style-type: disc; font-family: Roboto, sans-serif; background-color: transparent; font-variant-numeric: normal; font-variant-east-asian: normal; font-variant-alternates: normal; font-variant-position: normal; vertical-align: baseline;&quot; dir=&quot;ltr&quot;&gt;&lt;p role=&quot;presentation&quot; style=&quot;line-height:1.38;margin-top:0pt;margin-bottom:0pt;&quot; dir=&quot;ltr&quot;&gt;&lt;span style=&quot;background-color: transparent; font-variant-numeric: normal; font-variant-east-asian: normal; font-variant-alternates: normal; font-variant-position: normal; vertical-align: baseline;&quot;&gt;&lt;font style=&quot;font-size: 14px;&quot;&gt;Un post peut être liké/ être mis en fav&lt;/font&gt;&lt;/span&gt;&lt;/p&gt;&lt;/li&gt;&lt;li aria-level=&quot;1&quot; style=&quot;list-style-type: disc; font-family: Roboto, sans-serif; background-color: transparent; font-variant-numeric: normal; font-variant-east-asian: normal; font-variant-alternates: normal; font-variant-position: normal; vertical-align: baseline;&quot; dir=&quot;ltr&quot;&gt;&lt;p role=&quot;presentation&quot; style=&quot;line-height:1.38;margin-top:0pt;margin-bottom:0pt;&quot; dir=&quot;ltr&quot;&gt;&lt;span style=&quot;background-color: transparent; font-variant-numeric: normal; font-variant-east-asian: normal; font-variant-alternates: normal; font-variant-position: normal; vertical-align: baseline;&quot;&gt;&lt;font style=&quot;font-size: 14px;&quot;&gt;Un post peut être commenté&lt;/font&gt;&lt;/span&gt;&lt;/p&gt;&lt;/li&gt;&lt;li aria-level=&quot;1&quot; style=&quot;list-style-type: disc; font-family: Roboto, sans-serif; background-color: transparent; font-variant-numeric: normal; font-variant-east-asian: normal; font-variant-alternates: normal; font-variant-position: normal; vertical-align: baseline;&quot; dir=&quot;ltr&quot;&gt;&lt;p role=&quot;presentation&quot; style=&quot;line-height:1.38;margin-top:0pt;margin-bottom:0pt;&quot; dir=&quot;ltr&quot;&gt;&lt;span style=&quot;background-color: transparent; font-variant-numeric: normal; font-variant-east-asian: normal; font-variant-alternates: normal; font-variant-position: normal; vertical-align: baseline;&quot;&gt;&lt;font style=&quot;font-size: 14px;&quot;&gt;Un post peut être supprimé&amp;nbsp;&lt;/font&gt;&lt;/span&gt;&lt;/p&gt;&lt;/li&gt;&lt;li aria-level=&quot;1&quot; style=&quot;list-style-type: disc; font-family: Roboto, sans-serif; background-color: transparent; font-variant-numeric: normal; font-variant-east-asian: normal; font-variant-alternates: normal; font-variant-position: normal; vertical-align: baseline;&quot; dir=&quot;ltr&quot;&gt;&lt;p role=&quot;presentation&quot; style=&quot;line-height:1.38;margin-top:0pt;margin-bottom:0pt;&quot; dir=&quot;ltr&quot;&gt;&lt;span style=&quot;background-color: transparent; font-variant-numeric: normal; font-variant-east-asian: normal; font-variant-alternates: normal; font-variant-position: normal; vertical-align: baseline;&quot;&gt;&lt;font style=&quot;font-size: 14px;&quot;&gt;Le profil d’un utilisateur peut être personnalisé&lt;/font&gt;&lt;/span&gt;&lt;/p&gt;&lt;/li&gt;&lt;li aria-level=&quot;1&quot; style=&quot;list-style-type: disc; font-family: Roboto, sans-serif; background-color: transparent; font-variant-numeric: normal; font-variant-east-asian: normal; font-variant-alternates: normal; font-variant-position: normal; vertical-align: baseline;&quot; dir=&quot;ltr&quot;&gt;&lt;p role=&quot;presentation&quot; style=&quot;line-height:1.38;margin-top:0pt;margin-bottom:10pt;&quot; dir=&quot;ltr&quot;&gt;&lt;span style=&quot;background-color: transparent; font-variant-numeric: normal; font-variant-east-asian: normal; font-variant-alternates: normal; font-variant-position: normal; vertical-align: baseline;&quot;&gt;&lt;font style=&quot;font-size: 14px;&quot;&gt;Un utilisateur peut s’abonner à un autre utilisateur&lt;/font&gt;&lt;/span&gt;&lt;/p&gt;&lt;/li&gt;&lt;li aria-level=&quot;1&quot; style=&quot;list-style-type: disc; font-family: Roboto, sans-serif; background-color: transparent; font-variant-numeric: normal; font-variant-east-asian: normal; font-variant-alternates: normal; font-variant-position: normal; vertical-align: baseline;&quot; dir=&quot;ltr&quot;&gt;&lt;p role=&quot;presentation&quot; style=&quot;line-height:1.38;margin-top:0pt;margin-bottom:0pt;&quot; dir=&quot;ltr&quot;&gt;&lt;span style=&quot;background-color: transparent; font-variant-numeric: normal; font-variant-east-asian: normal; font-variant-alternates: normal; font-variant-position: normal; vertical-align: baseline;&quot;&gt;&lt;font style=&quot;font-size: 14px;&quot;&gt;Un utilisateur peut voir l’ensemble des textes publiés par les utilisateurs auxquels il est abonné&lt;/font&gt;&lt;/span&gt;&lt;/p&gt;&lt;/li&gt;&lt;/ul&gt;&lt;font style=&quot;font-size: 14px;&quot;&gt;&lt;span id=&quot;docs-internal-guid-afa54a96-7fff-a467-891f-8bc9276a1767&quot;&gt;&lt;/span&gt;&lt;/font&gt;" style="shape=note;size=20;whiteSpace=wrap;html=1;rotation=1;align=center;" vertex="1" parent="1">
          <mxGeometry x="10" y="-91.29" width="250" height="380" as="geometry" />
        </mxCell>
        <mxCell id="jCPew9xWDgTRCIevKKTK-2" value="UTILISATEUR" style="swimlane;childLayout=stackLayout;horizontal=1;startSize=50;horizontalStack=0;rounded=1;fontSize=14;fontStyle=0;strokeWidth=2;resizeParent=0;resizeLast=1;shadow=0;dashed=0;align=center;arcSize=4;whiteSpace=wrap;html=1;" vertex="1" parent="1">
          <mxGeometry x="440" y="-40" width="160" height="120" as="geometry" />
        </mxCell>
        <mxCell id="jCPew9xWDgTRCIevKKTK-3" value="ID&lt;br&gt;NOM&lt;br&gt;" style="align=center;strokeColor=none;fillColor=none;spacingLeft=4;fontSize=12;verticalAlign=top;resizable=0;rotatable=0;part=1;html=1;" vertex="1" parent="jCPew9xWDgTRCIevKKTK-2">
          <mxGeometry y="50" width="160" height="70" as="geometry" />
        </mxCell>
        <mxCell id="jCPew9xWDgTRCIevKKTK-4" value="SON PUBLICATION" style="swimlane;childLayout=stackLayout;horizontal=1;startSize=50;horizontalStack=0;rounded=1;fontSize=14;fontStyle=0;strokeWidth=2;resizeParent=0;resizeLast=1;shadow=0;dashed=0;align=center;arcSize=4;whiteSpace=wrap;html=1;" vertex="1" parent="1">
          <mxGeometry x="330" y="130" width="160" height="120" as="geometry" />
        </mxCell>
        <mxCell id="jCPew9xWDgTRCIevKKTK-5" value="Mot clée&lt;br&gt;texte&lt;br&gt;+Attribute3" style="align=center;strokeColor=none;fillColor=none;spacingLeft=4;fontSize=12;verticalAlign=top;resizable=0;rotatable=0;part=1;html=1;" vertex="1" parent="jCPew9xWDgTRCIevKKTK-4">
          <mxGeometry y="50" width="160" height="70" as="geometry" />
        </mxCell>
        <mxCell id="jCPew9xWDgTRCIevKKTK-6" value="TOUS LES PUBLICATIONS" style="swimlane;childLayout=stackLayout;horizontal=1;startSize=50;horizontalStack=0;rounded=1;fontSize=14;fontStyle=0;strokeWidth=2;resizeParent=0;resizeLast=1;shadow=0;dashed=0;align=center;arcSize=4;whiteSpace=wrap;html=1;" vertex="1" parent="1">
          <mxGeometry x="610" y="120" width="160" height="120" as="geometry" />
        </mxCell>
        <mxCell id="jCPew9xWDgTRCIevKKTK-7" value="+Attribute1&#xa;+Attribute2&#xa;+Attribute3" style="align=center;strokeColor=none;fillColor=none;spacingLeft=4;fontSize=12;verticalAlign=top;resizable=0;rotatable=0;part=1;html=1;" vertex="1" parent="jCPew9xWDgTRCIevKKTK-6">
          <mxGeometry y="50" width="160" height="70" as="geometry" />
        </mxCell>
        <mxCell id="jCPew9xWDgTRCIevKKTK-8" value="PROFILE" style="swimlane;childLayout=stackLayout;horizontal=1;startSize=50;horizontalStack=0;rounded=1;fontSize=14;fontStyle=0;strokeWidth=2;resizeParent=0;resizeLast=1;shadow=0;dashed=0;align=center;arcSize=4;whiteSpace=wrap;html=1;" vertex="1" parent="1">
          <mxGeometry x="650" y="-50" width="160" height="120" as="geometry" />
        </mxCell>
        <mxCell id="jCPew9xWDgTRCIevKKTK-9" value="+Attribute1&#xa;+Attribute2&#xa;+Attribute3" style="align=center;strokeColor=none;fillColor=none;spacingLeft=4;fontSize=12;verticalAlign=top;resizable=0;rotatable=0;part=1;html=1;" vertex="1" parent="jCPew9xWDgTRCIevKKTK-8">
          <mxGeometry y="50" width="160" height="70" as="geometry" />
        </mxCell>
        <mxCell id="jCPew9xWDgTRCIevKKTK-14" style="edgeStyle=orthogonalEdgeStyle;rounded=0;orthogonalLoop=1;jettySize=auto;html=1;exitX=1;exitY=0.5;exitDx=0;exitDy=0;entryX=0;entryY=0.25;entryDx=0;entryDy=0;" edge="1" parent="1" source="jCPew9xWDgTRCIevKKTK-10" target="jCPew9xWDgTRCIevKKTK-2">
          <mxGeometry relative="1" as="geometry">
            <Array as="points">
              <mxPoint x="410" y="30" />
              <mxPoint x="410" y="-10" />
            </Array>
          </mxGeometry>
        </mxCell>
        <mxCell id="jCPew9xWDgTRCIevKKTK-15" style="edgeStyle=orthogonalEdgeStyle;rounded=0;orthogonalLoop=1;jettySize=auto;html=1;exitX=0.5;exitY=1;exitDx=0;exitDy=0;entryX=0.25;entryY=0;entryDx=0;entryDy=0;" edge="1" parent="1" source="jCPew9xWDgTRCIevKKTK-10" target="jCPew9xWDgTRCIevKKTK-4">
          <mxGeometry relative="1" as="geometry" />
        </mxCell>
        <mxCell id="jCPew9xWDgTRCIevKKTK-10" value="PUBLIER&lt;br&gt;REPOSTER&lt;br&gt;LIKE&lt;br&gt;MIS EN FAV" style="shape=rhombus;perimeter=rhombusPerimeter;whiteSpace=wrap;html=1;align=center;" vertex="1" parent="1">
          <mxGeometry x="270" y="-30" width="150" height="120" as="geometry" />
        </mxCell>
        <mxCell id="jCPew9xWDgTRCIevKKTK-16" value="1,N" style="text;html=1;align=center;verticalAlign=middle;resizable=0;points=[];autosize=1;strokeColor=none;fillColor=none;" vertex="1" parent="1">
          <mxGeometry x="400" y="-42" width="40" height="30" as="geometry" />
        </mxCell>
        <mxCell id="jCPew9xWDgTRCIevKKTK-17" value="0,N" style="text;html=1;align=center;verticalAlign=middle;resizable=0;points=[];autosize=1;strokeColor=none;fillColor=none;" vertex="1" parent="1">
          <mxGeometry x="370" y="78" width="40" height="30" as="geometry" />
        </mxCell>
      </root>
    </mxGraphModel>
  </diagram>
</mxfile>
